<?xml version="1.0" encoding="utf-8"?>
<!-- Generator: Adobe Illustrator 15.0.0, SVG Export Plug-In . SVG Version: 6.00 Build 0)  -->
<!DOCTYPE svg PUBLIC "-//W3C//DTD SVG 1.1//EN" "http://www.w3.org/Graphics/SVG/1.1/DTD/svg11.dtd">
<svg version="1.1" id="Layer_1" xmlns="http://www.w3.org/2000/svg" xmlns:xlink="http://www.w3.org/1999/xlink" x="0px" y="0px"
	 width="40.036px" height="32.536px" viewBox="0 0 40.036 32.536" enable-background="new 0 0 40.036 32.536" xml:space="preserve">
<path fill="#FFFFFF" d="M40.036,3.852c-1.473,0.653-3.056,1.095-4.718,1.293c1.696-1.017,2.998-2.626,3.612-4.544
	c-1.587,0.942-3.346,1.625-5.217,1.994C32.215,0.997,30.081,0,27.718,0c-4.536,0-8.214,3.677-8.214,8.213
	c0,0.644,0.073,1.271,0.213,1.872C12.891,9.743,6.838,6.473,2.787,1.503C2.081,2.716,1.675,4.127,1.675,5.632
	c0,2.85,1.45,5.364,3.654,6.837c-1.347-0.043-2.613-0.413-3.721-1.028c-0.001,0.034-0.001,0.069-0.001,0.104
	c0,3.979,2.832,7.299,6.589,8.054c-0.689,0.188-1.415,0.288-2.164,0.288c-0.529,0-1.044-0.052-1.546-0.147
	c1.046,3.263,4.079,5.638,7.673,5.704c-2.811,2.203-6.353,3.517-10.201,3.517c-0.663,0-1.317-0.039-1.959-0.115
	c3.635,2.331,7.953,3.69,12.591,3.69c15.109,0,23.37-12.516,23.37-23.37c0-0.356-0.008-0.71-0.023-1.063
	C37.542,6.945,38.934,5.499,40.036,3.852z"/>
</svg>
